<?xml version="1.0" encoding="utf-8"?>
<!-- Generator: Adobe Illustrator 22.0.0, SVG Export Plug-In . SVG Version: 6.00 Build 0)  -->
<svg version="1.1" id="Слой_1" xmlns="http://www.w3.org/2000/svg" xmlns:xlink="http://www.w3.org/1999/xlink" x="0px" y="0px"
	 width="40px" height="40px" viewBox="0 0 40 40" enable-background="new 0 0 40 40" xml:space="preserve">
<g>
	<path fill="#4F5A6C" d="M29.7233772,11.3133535c-0.3718166,0.048934-0.5369034,0.0838451-0.703125,0.090519
		c-1.8736725,0.075222-1.8740025,0.0740585-1.8743095-1.8374758c-0.0003338-2.0976758-0.0000744-4.1953506-0.0000744-6.3897095
		c-7.9425526,0-15.7721014,0-23.7105618,0c0,11.1689529,0,22.3424644,0,33.6289558c5.8187532,0,11.6673813,0,17.6910343,0
		c0-1.7453613,0-3.5159874,0-5.4338455c2.0758171,0,3.9817257,0,5.9621735,0c0-2.4535599,0-4.7560539,0-7.1692944
		c0.8570347,0,1.6379452,0,2.5665913,0c0,2.678545,0.0295582,5.368248-0.0327511,8.0558262
		c-0.0090637,0.3907013-0.3885269,0.846756-0.7139702,1.1441078c-1.9958401,1.8236046-3.997118,3.6439323-6.0651836,5.3838158
		c-0.4754372,0.3999863-1.2173176,0.6745148-1.83922,0.6795349C14.866704,39.5152817,8.7288589,39.5026932,2.591207,39.4906845
		c-1.4696177-0.0028801-1.8376603-0.3777962-1.8383474-1.8232384C0.7472737,25.9071045,0.7476295,14.1467552,0.7521244,2.3864098
		c0.0005839-1.5258873,0.3535525-1.8807274,1.9094861-1.8821762c8.3695812-0.007793,16.7391796-0.0075046,25.1087608-0.0002846
		c1.6198196,0.0013977,1.9451752,0.3392462,1.9504013,1.9776118C29.7300625,5.3949986,29.7233772,8.3084879,29.7233772,11.3133535z"
		/>
	<path fill="#4F5A6C" d="M12.2036591,12.6690426c7.0250988,0,13.957922,0,20.9825516,0c0,3.3770046,0,6.6965008,0,10.1064835
		c-6.964695,0-13.9314175,0-20.9825516,0C12.2036591,19.4527626,12.2036591,16.1267395,12.2036591,12.6690426z
		 M20.2832108,21.1614494c1.339901-0.1342506,2.4622726-0.1207447,3.5166264-0.3818779
		c1.5797653-0.391264,2.3258762-1.6498051,2.255991-3.4232998c-0.0597534-1.5163126-0.8627949-2.5331593-2.4435863-2.8557072
		c-0.8242111-0.1681747-1.7016239-0.1655798-2.5444679-0.1015053c-0.2784824,0.0211678-0.7408485,0.4688797-0.749836,0.7340803
		C20.2531376,17.0454731,20.2832108,18.9610195,20.2832108,21.1614494z M15.9945745,20.9393826c0-0.8622894,0-1.5401249,0-2.2217197
		c0.6624403-0.1100502,1.3709593-0.0357761,1.8038359-0.3460598c0.6024418-0.4318218,1.2629242-1.0973701,1.3999386-1.7651825
		c0.1114998-0.5434456-0.3814888-1.6411018-0.8317337-1.784234c-1.0948544-0.348052-2.3198929-0.3058224-3.4952192-0.3532104
		c-0.1241283-0.0050068-0.3784142,0.4375067-0.382472,0.6756363c-0.0319757,1.8758764-0.0177526,3.7525396-0.0177526,5.7241793
		C15.0010471,20.8933449,15.4074306,20.9121742,15.9945745,20.9393826z M31.4042339,15.6241684
		c-0.4208069-0.601697-0.6255035-1.1868582-0.8818569-1.2104397c-1.125288-0.1035128-2.2655163-0.0446291-3.3751469-0.0446291
		c0,2.3150225,0,4.4352446,0,6.6334982c0.4945107-0.0262966,0.9013081-0.0479298,1.3700676-0.072855
		c0.0432167-0.8753872,0.0823059-1.6671162,0.1204281-2.4393101c2.2674541-0.3058567,2.2674541-0.3058567,2.1331043-1.3872623
		c-0.6857357,0-1.3932457,0-2.1317596,0c0-0.5428791,0-0.9520702,0-1.479002
		C29.446003,15.6241684,30.1968403,15.6241684,31.4042339,15.6241684z"/>
	<path fill="#4F5A6C" d="M21.7983723,15.6701097c1.7466621-0.2389679,2.6244144,0.3812227,2.6852837,1.8631353
		c0.0652142,1.5877438-0.8120689,2.3924236-2.6852837,2.3542709C21.7983723,18.5213547,21.7983723,17.1472778,21.7983723,15.6701097
		z"/>
	<path fill="#4F5A6C" d="M16.0545483,17.4340744c0-0.7007217,0-1.2785397,0-1.907299
		c0.8204784-0.089982,1.6392899-0.1288624,1.6868248,0.8598785C17.7923412,17.4467831,16.9671955,17.538702,16.0545483,17.4340744z"
		/>
</g>
</svg>
