<?xml version="1.0" encoding="utf-8"?>
<!-- Generator: Adobe Illustrator 18.1.1, SVG Export Plug-In . SVG Version: 6.00 Build 0)  -->
<svg version="1.1" id="Слой_1" xmlns="http://www.w3.org/2000/svg" xmlns:xlink="http://www.w3.org/1999/xlink" x="0px" y="0px"
	 viewBox="0 0 300 300" enable-background="new 0 0 300 300" xml:space="preserve">
<g>
	<path fill="#2D3D54" d="M35.5,36c-10.9,0-21.8,0-33.2,0c0-5.8,0-10.7,0-16.9c14.1,0,28-0.3,41.9,0.3c2.2,0.1,5.5,3.6,6.2,6
		c2.2,7.9,4.1,15.9,4.8,24c1,10.9,5.5,14.2,16.8,14.1c70.3-0.6,140.7-0.3,211-0.3c3.7,0,7.4,0,12.5,0c-1.2,3.8-1.9,6.6-2.9,9.3
		c-14.5,36.4-29.2,72.8-43.4,109.3c-2.6,6.6-6.2,8.2-12.9,8.2c-46.4-0.3-92.9-0.2-139.3-0.2c-3.7,0-7.4,0-12.5,0
		c1.9,9.5,2.9,18.3,5.6,26.5c0.7,2.2,6.4,3.8,9.9,3.8c43.7,0.3,87.4,0.2,131.1,0.2c3.7,0,7.4,0,12,0c0,5.4,0,10.3,0,16.4
		c-3.6,0-6.9,0-10.2,0c-48.8,0-97.7-0.1-146.5,0.1c-7.3,0-10.5-1.6-12-9.6c-11.7-59.6-24-119-36.1-178.5
		C37.5,44.8,36.5,40.9,35.5,36z"/>
	<path fill="#2D3D54" d="M105.8,270.1c0,9.3-7.6,16.7-17.1,16.7c-9.5-0.1-16.8-7.7-16.6-17.1c0.3-8.9,7.6-16.1,16.5-16.2
		C97.9,253.3,105.7,260.9,105.8,270.1z"/>
	<path fill="#2D3D54" d="M249,270.5c-0.2,9.3-8,16.5-17.6,16.2c-9.4-0.3-16.8-8.3-16.2-17.5c0.5-8.8,8.2-15.9,17-15.8
		C241.4,253.5,249.2,261.4,249,270.5z"/>
</g>
</svg>
