<svg xmlns="http://www.w3.org/2000/svg" viewBox="0 0 50 50"><path d="M25 15.24c-7.111 0-14.222.008-21.333-.004-2.767-.005-4.23-2.382-2.801-4.76.365-.608 1.484-1.021 2.282-1.063 2.537-.134 5.086-.052 7.63-.052 11.808 0 23.617-.003 35.425.002 2.968.001 4.089 1.577 3.189 4.426-.464 1.467-1.664 1.45-2.863 1.45L25 15.24zm-.163 13.707c-7.046 0-14.092.008-21.138-.003C.902 28.94-.577 26.618.867 24.222c.404-.67 1.73-1.096 2.637-1.104 9.329-.079 18.658-.049 27.987-.049 5.023 0 10.047-.012 15.07.006 2.451.009 2.972.57 2.949 3.029-.022 2.299-.544 2.832-2.949 2.837-7.241.015-14.482.005-21.724.006zm-.004 13.705c-7.046.001-14.092.008-21.138-.003C.902 42.645-.537 40.342.848 37.91c.331-.581 1.339-1.005 2.077-1.08 1.615-.162 3.257-.056 4.888-.056 12.787 0 25.574-.003 38.361.002 2.884.001 3.437.629 3.351 3.429-.058 1.881-1.056 2.463-2.772 2.457-7.306-.025-14.613-.01-21.92-.01z" fill="#ffffff"/></svg>