<?xml version="1.0" encoding="utf-8"?>
<svg version="1.1" id="Слой_1" xmlns="http://www.w3.org/2000/svg" xmlns:xlink="http://www.w3.org/1999/xlink" x="0px" y="0px"
	 viewBox="0 0 400 150" enable-background="new 0 0 400 150" xml:space="preserve">
<path d="M383,38.2H71c-5.5,0-10-4.5-10-10v-10c0-5.5,4.5-10,10-10H383c5.5,0,10,4.5,10,10v10C393,33.7,388.5,38.2,383,38.2z"/>
<path d="M383,90H71c-5.5,0-10-4.5-10-10V70c0-5.5,4.5-10,10-10H383c5.5,0,10,4.5,10,10v10C393,85.5,388.5,90,383,90z"/>
<path d="M383,143.7H71c-5.5,0-10-4.5-10-10v-10c0-5.5,4.5-10,10-10H383c5.5,0,10,4.5,10,10v10C393,139.2,388.5,143.7,383,143.7z"/>
<path d="M37,38H17c-5.5,0-10-4.5-10-10V18c0-5.5,4.5-10,10-10h20c5.5,0,10,4.5,10,10v10C47,33.5,42.5,38,37,38z"/>
<path d="M37,90H17c-5.5,0-10-4.5-10-10V70c0-5.5,4.5-10,10-10h20c5.5,0,10,4.5,10,10v10C47,85.5,42.5,90,37,90z"/>
<path d="M37.3,144h-20c-5.5,0-10-4.5-10-10v-10c0-5.5,4.5-10,10-10h20c5.5,0,10,4.5,10,10v10C47.3,139.5,42.8,144,37.3,144z"/>
</svg>
