<?xml version="1.0" encoding="utf-8"?>
<!-- Generator: Adobe Illustrator 18.1.1, SVG Export Plug-In . SVG Version: 6.00 Build 0)  -->
<svg version="1.1" id="Слой_1" xmlns="http://www.w3.org/2000/svg" xmlns:xlink="http://www.w3.org/1999/xlink" x="0px" y="0px"
	 viewBox="0 0 300 300" enable-background="new 0 0 300 300" xml:space="preserve">
<path fill="#FFFFFF" d="M287.6,257c-28-28.4-56.2-56.5-84.4-84.8l-22.5-22.6c35.4-35.7,70.7-71.4,106.2-106.9
	c9.6-9.6,11.9-18.5,1.7-29.4C273.3-2.8,266.6-3.2,250.5,13C216.3,47.5,182,82,147.8,116.5c-33.7-34-67.6-67.8-101.6-101.4
	c-5.1-5.1-14.9-10.1-21-8.7C3.7,11.7-1.1,33,14.5,48.8C47.9,82.5,81.4,116,114.9,149.6L36,229.1C26.9,238.3,17.1,247,9,257
	c-3.7,4.6-7,12.6-5.5,17.7c6,21.4,27,26.2,42.6,10.5c34-34.1,67.9-68.3,101.8-102.5c35.6,35.8,71.1,71.5,106.8,107.2
	c13.5,13.5,19.4,13.5,32.5,0.7C301,276.9,301.3,270.9,287.6,257L287.6,257z"/>
</svg>
