<?xml version="1.0" encoding="utf-8"?>
<!-- Generator: Adobe Illustrator 22.0.0, SVG Export Plug-In . SVG Version: 6.00 Build 0)  -->
<svg version="1.1" id="Слой_1" xmlns="http://www.w3.org/2000/svg" xmlns:xlink="http://www.w3.org/1999/xlink" x="0px" y="0px"
	 viewBox="0 0 50 50" style="enable-background:new 0 0 50 50;" xml:space="preserve">
<style type="text/css">
	.st0{fill:#FFFFFF;}
</style>
<path class="st0" d="M47.7,42.4c-4.6-4.6-9.3-9.2-13.9-13.9L30,24.9C35.9,19,41.7,13.2,47.6,7.5c1.6-1.6,2-3,0.3-4.8
	C45.4,0,44.3,0,41.6,2.6c-5.7,5.6-11.3,11.2-17,16.8C19,13.9,13.5,8.4,7.9,2.9C7,2,5.4,1.2,4.4,1.5C0.8,2.3,0,5.8,2.6,8.4
	c5.5,5.5,11,11,16.6,16.5L6.1,37.8c-1.5,1.5-3.1,2.9-4.5,4.5C1,43,0.5,44.3,0.7,45.2c1,3.5,4.5,4.3,7,1.7
	c5.6-5.5,11.2-11.1,16.9-16.7c5.9,5.8,11.7,11.7,17.6,17.5c2.2,2.2,3.2,2.2,5.4,0.1C49.9,45.6,49.9,44.7,47.7,42.4L47.7,42.4z"/>
</svg>
