<?xml version="1.0" encoding="utf-8"?>
<!-- Generator: Adobe Illustrator 22.0.0, SVG Export Plug-In . SVG Version: 6.00 Build 0)  -->
<svg version="1.1" id="Слой_1" xmlns="http://www.w3.org/2000/svg" xmlns:xlink="http://www.w3.org/1999/xlink" x="0px" y="0px"
	 viewBox="0 0 159 215" style="enable-background:new 0 0 159 215;" xml:space="preserve">
<style type="text/css">
	.st0{fill:#2670CA;}
</style>
<path class="st0" d="M14.8,41.7h8.7c2.3,0,3.9-0.6,5-1.6c1-1.1,1.7-2.5,2-4.2c0.3-1.7,0.4-3.6,0.4-5.7c0-2-0.1-3.9-0.4-5.7
	c-0.3-1.7-0.9-3.1-2-4.2c-1-1.1-2.7-1.6-5-1.6h-8.7V41.7L14.8,41.7z M32.7,30.2c0,4.3,0.6,7.4,1.8,9.2c1.3,1.9,3.4,2.8,6.4,2.8
	c3,0,5.2-0.9,6.4-2.8c1.3-1.9,1.9-5,1.8-9.2c0-4.3-0.6-7.4-1.8-9.2c-1.3-1.9-3.4-2.8-6.4-2.8c-3,0-5.2,0.9-6.4,2.8
	C33.3,22.8,32.7,25.9,32.7,30.2L32.7,30.2z M60.6,26.9h5.8v-1.5c0-2.3-0.5-4-1.7-5.3c-1.2-1.3-3.1-2-5.8-2c-3.1-0.1-5.2,0.8-6.5,2.7
	c-1.2,1.8-1.8,4.9-1.8,9.3c0,2.9,0.2,5.2,0.6,6.9c0.4,1.8,1.3,3.1,2.5,3.9c1.2,0.8,2.9,1.2,5.1,1.2c1.3,0,2.5-0.2,3.7-0.6
	c1.2-0.4,2.1-1.3,2.8-2.4c0.7-1.2,1.1-2.8,1.1-5v-1.7h-5.8c0,2.1-0.1,3.6-0.3,4.5c-0.2,0.8-0.7,1.2-1.5,1.2c-0.6,0-1.1-0.2-1.3-0.7
	C57.3,37,57.1,36.2,57,35c-0.1-1.2-0.1-2.8-0.1-4.8c0-2.1,0-3.7,0.1-4.8c0.1-1.2,0.3-2,0.6-2.4c0.3-0.5,0.7-0.7,1.3-0.7
	c0.6,0,1,0.2,1.3,0.7c0.3,0.5,0.4,1.4,0.4,2.7V26.9L60.6,26.9z M98.3,5.1v56.5h56.5V212H4.6V5.1H98.3L98.3,5.1z M14.8,89.7v112.1
	h129.9V89.7L14.8,89.7L14.8,89.7z M20.8,23H22c0.8,0,1.3,0.1,1.7,0.5c0.4,0.3,0.6,1,0.7,2.1c0.1,1,0.2,2.6,0.2,4.6
	c0,2.1,0,3.6-0.2,4.6c-0.1,1-0.4,1.7-0.7,2.1c-0.4,0.3-1,0.5-1.7,0.5h-1.2V23L20.8,23z M38.9,30.2c0-2.1,0-3.7,0.1-4.8
	c0.1-1.2,0.3-2,0.6-2.4c0.3-0.5,0.7-0.7,1.3-0.7c0.6,0,1.1,0.2,1.3,0.7c0.3,0.5,0.5,1.3,0.6,2.4c0.1,1.2,0.1,2.8,0.1,4.8
	c0,2.1,0,3.7-0.1,4.8c-0.1,1.2-0.3,2-0.6,2.4c-0.3,0.5-0.7,0.7-1.3,0.7c-0.6,0-1.1-0.2-1.3-0.7C39.3,37,39.1,36.2,39,35
	C38.9,33.9,38.9,32.2,38.9,30.2L38.9,30.2z M132,150.7l-8.5,34.2h-11l-3.9-19.8l-4,19.8h-11l-8.5-34.2h10.8l3.8,21.1l4.2-21.1h9.3
	l4.1,21.1l3.9-21.1H132L132,150.7z M27.4,150.7l50.1,0v4.8H27.4V150.7L27.4,150.7z M27.4,136H132v4.8H27.4V136L27.4,136z
	 M27.4,121.3H132v4.8H27.4V121.3L27.4,121.3z M27.4,106.7H132v4.8H27.4V106.7L27.4,106.7z M27.4,165.4h50.1v4.8H27.4V165.4
	L27.4,165.4z M27.4,180.1h50.1v4.8H27.4V180.1L27.4,180.1z M104.9,5.1l50,50h-50V5.1L104.9,5.1z"/>
</svg>
