<?xml version="1.0" encoding="utf-8"?>
<!-- Generator: Adobe Illustrator 22.0.0, SVG Export Plug-In . SVG Version: 6.00 Build 0)  -->
<svg version="1.1" id="Слой_1" xmlns="http://www.w3.org/2000/svg" xmlns:xlink="http://www.w3.org/1999/xlink" x="0px" y="0px"
	 viewBox="0 0 159 215" style="enable-background:new 0 0 159 215;" xml:space="preserve">
<style type="text/css">
	.st0{fill:#C8002D;}
</style>
<path class="st0" d="M16.5119953,42.2172318h5.8571033v-8.7191887h2.0513954
	c2.3866425-0.0033836,4.2090549-0.6051445,5.4674129-1.8017178c1.2581825-1.1972866,1.8908615-2.9687271,1.9010162-5.3130779
	c0.0103283-2.0469456-0.5127621-3.7226067-1.5659447-5.0277824c-1.0531826-1.3043175-2.6944046-1.9783802-4.9203377-2.0218334
	h-8.7906456V42.2172318L16.5119953,42.2172318z M33.6694565,42.2172318h8.5070648
	c2.2224083-0.0304527,3.8398209-0.574688,4.8553658-1.6338081c1.0188713-1.0592384,1.6582031-2.4513512,1.9249992-4.1766701
	c0.263298-1.7251701,0.3760376-3.6025429,0.338398-5.631321c0.0376396-2.0286007-0.0750999-3.9060059-0.338398-5.6313229
	c-0.2667961-1.7260284-0.9061279-3.1174622-1.9249992-4.177412c-1.0155449-1.0581989-2.6329575-1.6035042-4.8553658-1.6330662
	h-8.5070648V42.2172318L33.6694565,42.2172318z M51.7948418,42.2172318h5.8571053v-9.4244194h6.9922409v-4.6755543H57.651947
	v-3.9157677h7.467514v-4.8678589H51.7948418V42.2172318L51.7948418,42.2172318z M16.5119953,89.8150024v111.0884705h126.5620728
	V89.8150024H16.5119953L16.5119953,89.8150024z M97.9403915,5.8900895v56.0195847H153V211H6.5858879V5.8900895H97.9403915
	L97.9403915,5.8900895z M22.3690987,23.6250191h1.1043015c0.742094-0.0017815,1.3061504,0.2259941,1.6891899,0.6852818
	c0.3863869,0.4600029,0.5812111,1.160778,0.5812111,2.1051788c0,0.958292-0.1948242,1.664381-0.5812111,2.1174679
	c-0.3830395,0.452877-0.9470959,0.677269-1.6891899,0.6738853h-1.1043015V23.6250191L22.3690987,23.6250191z M39.5300598,23.6250191
	h1.1659241c0.7454224-0.0261784,1.3028259,0.1330318,1.6720352,0.478344
	c0.3658829,0.3460255,0.6085434,1.0346909,0.7249374,2.0677814c0.1162415,1.0330887,0.1675339,2.5669594,0.1572075,4.6042881
	c0.0103264,2.0366135-0.040966,3.5713463-0.1572075,4.6044655c-0.116394,1.0330887-0.3590546,1.721756-0.7249374,2.0668907
	c-0.3692093,0.3462029-0.9266129,0.5052338-1.6720352,0.4792328h-1.1659241V23.6250191L39.5300598,23.6250191z
	 M85.7543869,106.5786057h45.0036087v4.7373199H85.7543869V106.5786057L85.7543869,106.5786057z M28.827919,150.2710876h45.0036087
	v4.7373199H28.827919V150.2710876L28.827919,150.2710876z M28.827919,135.7065125h45.0036087v4.7375031H28.827919V135.7065125
	L28.827919,135.7065125z M28.827919,164.8354492h45.0036087v4.7364655H28.827919V164.8354492L28.827919,164.8354492z
	 M28.827919,179.3981018l45.0036087,0.000885v4.7366028H28.827919V179.3981018L28.827919,179.3981018z M130.7579956,150.2710876
	v33.8678894H85.7543869v-33.8678894H130.7579956L130.7579956,150.2710876z M28.827919,121.1430054h45.0036087v4.7374725H28.827919
	V121.1430054L28.827919,121.1430054z M28.827919,106.5786057h45.0036087v4.7373199H28.827919V106.5786057L28.827919,106.5786057z
	 M85.7543869,135.7065125h45.0036087v4.7375031H85.7543869V135.7065125L85.7543869,135.7065125z M85.7543869,121.1430054h45.0036087
	v4.7374725H85.7543869V121.1430054L85.7543869,121.1430054z M104.3139343,5.8900895L153,55.4181557h-48.6860657V5.8900895
	L104.3139343,5.8900895z"/>
</svg>
