<?xml version="1.0" encoding="utf-8"?>
<svg version="1.1" id="Слой_1" xmlns="http://www.w3.org/2000/svg" xmlns:xlink="http://www.w3.org/1999/xlink" x="0px" y="0px"
	 viewBox="0 0 200 143" enable-background="new 0 0 200 143" xml:space="preserve">
<g>
	<path fill="#4F5A6C" d="M132.94377,139.77826c-40.71098,0-81.15089,0-121.55183,0
		c-6.06648-25.40086,16.05534-51.2942,42.14937-49.37401c1.74126,0.12814,3.69207,1.36905,5.00523,2.64732
		c4.87164,4.74221,9.51703,9.71685,15.00028,15.38204c5.17866-5.48062,9.66174-10.62328,14.62284-15.25381
		c1.67698-1.56523,4.63144-2.72735,6.88823-2.55785C120.19522,92.5099,136.91092,114.10421,132.94377,139.77826z"/>
	<path fill="#4F5A6C" d="M32.04514,85.90086c4.69305-10.70561,4.32343-20.88066,3.81396-31.2761
		c-0.39658-8.09209-0.26995-16.41111,1.1682-24.34955C39.94247,14.18385,51.78329,4.18445,68.55328,2.23377
		c16.22509-1.8873,31.24795,6.27571,38.15382,20.82866c4.96814,10.4695,5.62124,21.5333,3.72022,32.73616
		c-1.66934,9.83755-2.35977,19.48372,2.99885,30.38646c-7.52281-1.80986-13.6946-3.42211-19.93243-4.71606
		c-1.8195-0.37743-4.21772-0.50263-5.68615,0.3721c-10.47837,6.24187-20.62731,6.67204-30.88319-0.52094
		c-1.29935-0.91131-3.67096-0.93842-5.35247-0.54626C45.02075,82.3017,38.54742,84.16336,32.04514,85.90086z M60.01304,48.23083
		c0.3556-3.95631,0.72028-8.0137,1.07531-11.96358c-2.80135,1.15605-5.46066,2.72476-8.32157,3.313
		c-3.45808,0.71102-5.86667,2.57473-5.83915,5.77086c0.03853,4.47436-0.42607,10.63684,2.15194,13.02506
		c4.24841,3.93564,10.13583,7.52949,17.18745,4.55466c2.11813-0.89357,5.04752-0.77757,7.30254-0.10661
		c1.46186,0.43496,3.23004,2.6765,3.29592,4.17727c0.06721,1.53084-1.61392,4.32374-2.8217,4.49419
		c-3.12862,0.44151-6.52856,0.17789-9.6153-0.60848c-3.88815-0.99053-7.57285-2.77967-12.07505-4.50368
		c7.84773,15.18227,28.83072,16.36815,38.34364,2.99416c5.47752-7.70072,7.25181-16.65611,7.91025-25.87289
		c0.07105-0.99451-0.32372-2.39354-1.02523-3.00986c-3.67693-3.23044-7.52235-6.2691-10.58493-8.78048
		C78.438,36.95333,69.53038,42.40548,60.01304,48.23083z"/>
	<path fill="#4F5A6C" d="M172.60138,77.74878c-0.17175-1.34083-0.35249-2.75191-0.68065-5.31377
		c-1.44223,1.33008-2.60089,1.92501-3.0173,2.853c-7.39397,16.47855-27.68472,17.45222-36.04095,0.22474
		c-0.48923-1.00861-1.49699-1.76571-2.56506-2.98383c-2.73408,9.31889-2.11728,10.59938,5.80055,15.04679
		c1.29913,0.72972,2.3522,2.23353,2.98889,3.62256c0.21986,0.47966-1.23154,2.47321-1.81525,2.42803
		c-1.52678-0.11817-3.33386-0.61971-4.40965-1.62888c-1.649-1.54687-2.88396-3.58101-4.1095-5.52505
		c-4.11182-6.52245-10.05161-12.22083-8.58476-21.13528c1.92104-11.67475,6.24722-26.65993,19.30385-32.78427
		c12.77681-5.99309,27.91156-1.19703,34.9604,12.23204c4.30945,8.21011,8.1722,16.85052,6.60765,26.86519
		C180.03854,78.05794,179.53326,78.91235,172.60138,77.74878z M167.88037,65.37425
		c-6.90504-0.61166-11.64418-3.84318-15.84753-8.45865c-3.68423-4.04547-9.16168-4.5345-13.76474-2.27722
		c-4.82433,2.36578-4.41284,6.68882-3.97696,10.78934c0.31076,2.92356,1.05066,5.94604,2.29692,8.59619
		c2.78258,5.91711,7.18245,10.04684,14.203,10.07155c7.01839,0.02472,11.43028-4.06168,14.28308-9.96185
		C166.33694,71.5219,166.88574,68.56494,167.88037,65.37425z M128.16217,61.8521c0.59868-0.00438,1.19736-0.00877,1.79604-0.01315
		c2.02652-11.56554,6.23912-22.09255,19.54065-22.88818c15.0278-0.8989,19.72629,10.43319,22.56758,23.37201
		c2.53967-9.83701-0.89919-18.21819-9.28416-23.91301c-7.55484-5.13101-17.65256-5.47726-24.62436,0.48806
		c-4.11182,3.51823-7.27553,8.51466-9.76596,13.40618C127.08933,54.8625,128.16217,58.6304,128.16217,61.8521z"/>
	<path fill="#4F5A6C" d="M138.1685,124.54273c-2.06459-11.51507-7.35782-21.07731-16.5376-29.02099
		c2.07533-1.45035,3.87854-2.71053,5.39902-3.77311c3.13712,1.8764,5.83018,4.66901,8.67849,4.83752
		c2.52956,0.14967,5.23138-2.61242,8.50426-4.45319c2.00481,8.11337,4.2552,17.2206,6.5056,26.32783
		c0.25606-0.03066,0.51212-0.06132,0.76816-0.09197c1.75603-7.59617,3.50592-15.19375,5.27037-22.78796
		c1.03157-4.43983,3.99199-6.57581,8.58253-6.22359c12.76094,0.97912,22.90515,11.55889,23.30402,24.38373
		c0.10811,3.47575,0.0164,6.95773,0.0164,10.80173C171.84386,124.54273,155.29703,124.54273,138.1685,124.54273z"/>
</g>
</svg>
