<?xml version="1.0" encoding="utf-8"?>
<!-- Generator: Adobe Illustrator 22.0.0, SVG Export Plug-In . SVG Version: 6.00 Build 0)  -->
<svg version="1.1" id="Слой_1" xmlns="http://www.w3.org/2000/svg" xmlns:xlink="http://www.w3.org/1999/xlink" x="0px" y="0px"
	 viewBox="0 0 159 215" style="enable-background:new 0 0 159 215;" xml:space="preserve">
<style type="text/css">
	.st0{fill:#6DAC3B;}
</style>
<path class="st0" d="M22.1023331,33.1457634l-5.2731342,11.2955627h6.4896908l2.2772522-6.7088127l2.2153568,6.7088127h6.4896908
	l-5.2105465-11.2955627l4.8364086-10.9821262h-6.4896908l-1.9031143,6.4583092l-1.8412189-6.4583092h-6.4895172
	L22.1023331,33.1457634L22.1023331,33.1457634z M35.2788391,44.4413261H48.225975v-4.7398148h-7.1466026V22.1636372h-5.8005333
	V44.4413261L35.2788391,44.4413261z M63.8118439,28.5879669c0.0159492-2.3736477-0.5537529-4.1141376-1.70755-5.2214699
	c-1.1546631-1.1064892-2.9875603-1.6524162-5.4992104-1.6406269c-2.4482002,0.0093632-4.2767601,0.6069546-5.4872513,1.7930222
	c-1.2106628,1.1869106-1.8150406,2.9079819-1.8133049,5.1630421c0.0473289,1.9310265,0.5221977,3.3625641,1.423912,4.2928848
	c0.901535,0.9311829,1.9461098,1.6227684,3.1321526,2.0749016c1.1869087,0.4528732,2.2306137,0.925312,3.1330185,1.4196014
	c0.9008446,0.4944344,1.3757133,1.2699547,1.4230461,2.326313c-0.0032959,0.6222382-0.1674805,1.1335144-0.4918594,1.5340042
	c-0.3242073,0.3996239-0.784687,0.6060867-1.3823013,0.6196327c-0.5714378,0.0119629-1.0294876-0.1827316-1.3748474-0.5806236
	c-0.3444901-0.3987579-0.5215073-1.068325-0.5306931-2.0097389v-0.5308647h-5.6134644v0.7805214
	c0.0117874,2.281414,0.6586418,3.903492,1.9419479,4.8660545c1.2824364,0.9632378,3.1312866,1.4306755,5.5456772,1.4034538
	c2.5685158,0.010231,4.5231209-0.5409241,5.8665886-1.6532822c1.342598-1.1123619,2.0182304-2.8485146,2.0274239-5.2096786
	c-0.0499344-1.9927711-0.543354-3.4733772-1.483036-4.4418144c-0.9388123-0.9684601-2.0258598-1.6888237-3.2609673-2.1603966
	c-1.2351074-0.4705334-2.3219833-0.9564972-3.2607956-1.4568748c-0.9389877-0.5003319-1.4332733-1.2791214-1.482338-2.3347893
	c-0.0026016-0.5197716,0.1430321-0.97262,0.4375916-1.3587227c0.2936935-0.3859501,0.7517471-0.5891209,1.3748474-0.6078682
	c0.5603409,0.0178814,0.9769554,0.254858,1.2494965,0.709465c0.2716751,0.4554501,0.4070816,1.0201263,0.4063873,1.694025v0.529829
	H63.8118439L63.8118439,28.5879669z M97.4730453,9.0752029v54.5370178H152v145.1421814H7V9.0752029H97.4730453L97.4730453,9.0752029
	z M16.8291988,90.7786789v108.146492h125.341423V90.777832L16.8291988,90.7786789L16.8291988,90.7786789z M115.4384537,112.907486
	v63.8871918h-12.4179993V112.907486H115.4384537L115.4384537,112.907486z M95.6189957,126.6901016v50.1063004H83.2003021
	v-50.1063004H95.6189957L95.6189957,126.6901016z M75.7997055,136.2214203v40.5749817H63.3808403v-40.5749817H75.7997055
	L75.7997055,136.2214203z M55.9795532,148.0704346v28.7259674H43.561554v-28.7259674H55.9795532L55.9795532,148.0704346z
	 M103.7822495,9.0752029L152,57.2927818h-48.2177505V9.0752029L103.7822495,9.0752029z"/>
</svg>
